<svg width="676" height="272" viewBox="0 0 676 272" fill="none" xmlns="http://www.w3.org/2000/svg">
<path d="M0.487072 269.815L0.974145 270.627C1.26639 271.115 1.65605 271.505 2.17559 271.732C2.82502 272.187 3.86411 271.96 4.57848 271.797C5.52015 271.57 6.267 271.277 7.14373 270.822C8.0854 270.335 8.96213 269.782 9.87134 269.23C11.1377 268.45 12.4691 267.735 13.7354 266.922C17.7944 264.355 21.4961 261.235 25.1654 258.212C29.3218 254.8 33.3158 251.16 37.2123 247.487C44.1288 240.988 50.5581 233.935 57.1174 227.078C58.7085 225.42 60.397 223.828 61.8907 222.04C64.2936 219.213 66.6965 216.385 69.0993 213.558C74.035 207.741 79.0681 202.021 83.9063 196.138C103.519 172.349 123.164 148.591 143.037 124.997C151.902 114.499 160.896 104.132 169.988 93.8297C174.956 88.2073 179.957 82.5849 184.99 76.9625C187.263 74.4275 189.601 71.9576 191.907 69.4226C192.881 68.3501 193.92 67.3426 194.926 66.2701C196.81 64.3202 198.661 62.3377 200.609 60.4852C200.901 60.2577 201.226 60.0302 201.551 59.8027C201.356 60.2577 201.128 60.7127 200.901 61.1352C200.089 62.4677 199.278 63.8002 198.498 65.1652C197.589 66.7576 196.745 68.3501 195.836 69.9426C190.413 79.1075 184.471 87.9798 178.691 96.9172C175.086 102.475 171.417 107.935 167.715 113.459C159.532 125.647 151.35 137.834 143.037 149.956C134.27 162.761 125.502 175.566 116.703 188.338C113.066 193.636 109.396 198.901 105.825 204.231C103.681 207.481 101.441 210.666 99.3303 213.948C97.447 216.905 95.4337 219.798 93.6478 222.788C92.4139 224.868 91.18 226.948 89.9461 229.028C88.2251 231.888 86.8288 234.878 85.3026 237.835C84.9779 238.615 84.6532 239.395 84.3934 240.175C84.2311 240.923 84.1012 241.638 84.0038 242.385C84.0687 243.003 84.1337 243.588 84.2635 244.173C84.4584 244.758 84.6532 245.343 84.848 245.928C85.2052 246.967 86.2443 246.837 87.0561 246.61C88.2251 246.285 89.3616 246.025 90.5305 245.733C91.667 245.44 92.6737 244.953 93.7127 244.4C95.726 243.328 97.5769 242.06 99.3953 240.695C101.214 239.33 102.902 237.803 104.656 236.34C106.961 234.423 109.169 232.44 111.377 230.425C115.663 226.493 119.787 222.398 123.814 218.173C127.353 214.468 130.893 210.763 134.4 207.058C136.478 204.848 138.686 202.736 140.667 200.461C146.252 194.188 151.804 187.851 157.389 181.578C158.818 179.953 160.279 178.393 161.676 176.704C164.111 173.746 166.546 170.789 168.982 167.831C179.113 155.546 189.276 143.229 199.407 130.912C204.083 125.257 208.824 119.634 213.533 114.012C217.721 109.007 221.845 103.97 226.067 99.0297C229.314 95.1947 232.561 91.3273 235.873 87.5248C237.594 85.5424 239.315 83.4949 241.068 81.5449C242.172 80.3099 243.244 79.075 244.316 77.84C244.056 78.3275 243.764 78.8475 243.504 79.3349C239.088 86.9073 234.282 94.2847 229.638 101.695C225.417 108.422 221.033 115.052 216.715 121.714C212.786 127.824 208.954 134.064 205.058 140.239C201.421 146.056 197.751 151.809 194.082 157.594C186.127 170.139 178.074 182.651 170.216 195.293C166.741 200.851 163.234 206.441 159.89 212.095C157.779 215.67 155.668 219.245 153.623 222.853C152.584 224.738 151.512 226.59 150.538 228.475C149.401 230.62 148.395 232.863 147.356 235.04C146.836 236.145 146.446 237.348 146.154 238.55C145.797 240.045 146.089 241.475 146.317 242.97C146.446 243.783 146.609 244.823 147.745 244.79C148.784 244.725 149.824 244.725 150.863 244.66C151.837 244.595 152.843 244.205 153.753 243.848C155.733 243.035 157.584 241.703 159.273 240.435C163.397 237.315 167.326 233.903 171.06 230.36C178.658 223.178 185.542 215.28 192.264 207.286C198.109 200.363 203.694 193.181 209.409 186.096C213.175 181.383 216.91 176.671 220.644 171.926C225.125 166.239 229.671 160.616 234.087 154.864C252.563 130.912 270.942 106.862 290.003 83.3649C293.867 78.7175 297.699 74.1025 301.66 69.5201C303.544 67.3101 305.492 65.1652 307.44 62.9877C308.187 62.1427 308.934 61.3302 309.713 60.5177C309.973 60.2577 310.2 59.9977 310.46 59.7377C310.2 60.1927 309.908 60.6802 309.681 61.1677C308.577 63.2152 307.538 65.2627 306.369 67.3101C301.173 76.15 295.523 84.6974 290.003 93.3422C286.301 99.1597 282.502 104.88 278.735 110.664C275.196 116.092 271.657 121.519 268.182 127.012C264.221 133.284 260.259 139.557 256.265 145.829C247.758 159.186 239.218 172.511 230.645 185.836C227.041 191.458 223.501 197.113 219.994 202.801C215.838 209.528 211.714 216.255 207.85 223.178C207.038 224.64 206.226 226.103 205.415 227.565C203.531 230.913 202.005 234.455 200.706 238.063C200.122 239.558 199.44 241.085 199.375 242.678C199.31 244.043 199.537 245.277 200.219 246.447C200.447 246.837 200.771 247.195 201.161 247.487C201.421 247.552 201.68 247.65 201.94 247.715C202.395 247.91 202.914 247.975 203.401 247.877C204.278 247.877 205.252 247.52 206.097 247.292C207.038 247.032 207.915 246.61 208.792 246.253C212.266 244.758 215.286 242.223 218.208 239.85C221.618 237.12 224.833 234.098 227.917 230.978C233.892 224.998 239.51 218.628 245.225 212.388C246.654 210.828 248.147 209.333 249.479 207.708C251.329 205.466 253.213 203.223 255.064 201.013C259.642 195.488 264.318 190.028 268.832 184.471C268.669 184.666 268.507 184.861 268.344 185.056C275.586 176.314 282.762 167.571 289.938 158.764C289.613 159.154 289.289 159.576 288.964 159.966C294.192 153.661 299.517 147.421 304.777 141.149C306.498 139.102 308.187 136.957 309.973 134.942C312.278 132.342 314.616 129.774 316.954 127.174C321.663 121.909 326.339 116.579 331.177 111.379C336.34 105.855 341.47 100.297 346.698 94.8047C351.342 89.9298 356.018 85.0549 360.726 80.2449C362.642 78.2625 364.59 76.28 366.538 74.33C369.558 71.3726 372.513 68.2851 375.63 65.4251C376.182 64.9702 376.767 64.5477 377.351 64.1577C377.838 63.9302 378.325 63.7027 378.812 63.4752C378.877 63.5727 378.91 63.6702 378.975 63.7677C379.137 64.0277 379.235 64.3202 379.332 64.6127C379.332 64.7752 379.332 64.9052 379.332 65.0677C379.235 65.5877 379.105 66.0751 378.942 66.5626C378.131 68.4476 377.156 70.2351 376.15 72.0551C375.013 74.135 374.007 76.345 372.903 78.4575C370.532 83.0074 367.87 87.4273 365.337 91.8798C361.31 98.8022 357.284 105.757 353.257 112.679C349.621 118.952 345.724 125.062 341.925 131.204C334.651 143.067 327.15 154.766 319.844 166.596C315.785 173.194 311.726 179.791 307.667 186.421C304.031 192.336 300.394 198.251 296.887 204.231C294.906 207.676 292.796 211.088 290.912 214.565C287.795 220.318 284.613 226.038 282.794 232.375C282.502 233.448 282.145 234.65 282.112 235.755C282.112 236.113 282.112 236.47 282.112 236.828C282.21 237.413 282.307 237.965 282.405 238.55C282.567 239.33 283.087 239.85 283.606 240.403C283.866 240.468 284.126 240.565 284.385 240.63C284.84 240.793 285.327 240.825 285.847 240.695C287.762 240.5 289.613 239.525 291.269 238.615C293.607 237.38 295.685 235.82 297.731 234.163C301.628 231.075 305.459 227.858 309.129 224.51C311.239 222.56 313.35 220.61 315.331 218.563C319.39 214.338 323.481 210.113 327.54 205.888C329.748 203.613 331.956 201.371 334.002 198.998L346.309 184.633C348.744 181.806 351.212 178.978 353.582 176.119C353.68 176.021 353.777 175.891 353.842 175.794C353.939 175.664 354.069 175.534 354.167 175.404C354.556 175.014 354.913 174.591 355.206 174.104C355.206 174.104 355.206 174.071 355.238 174.039C355.336 173.909 355.465 173.779 355.563 173.616C355.465 173.746 355.336 173.876 355.238 174.006C355.368 173.844 355.498 173.681 355.628 173.551C355.985 173.161 356.342 172.771 356.634 172.316C356.634 172.284 356.699 172.251 356.699 172.219C356.992 171.894 357.251 171.536 357.544 171.211C357.901 170.854 358.193 170.464 358.485 170.074C358.615 169.911 358.745 169.781 358.875 169.619C359.2 169.229 359.524 168.839 359.849 168.449C360.206 168.091 360.499 167.701 360.791 167.311C360.921 167.149 361.051 167.019 361.148 166.856C361.992 165.816 362.837 164.809 363.681 163.769C363.356 164.159 363.031 164.581 362.707 164.971C363.746 163.704 364.752 162.436 365.791 161.201C365.467 161.591 365.142 162.014 364.817 162.404C365.369 161.721 365.921 161.071 366.473 160.389C366.506 160.324 366.571 160.291 366.603 160.226C367.123 159.739 367.577 159.154 367.967 158.569C367.967 158.569 367.999 158.536 368.032 158.504C368.811 157.561 369.591 156.619 370.337 155.676C370.857 155.189 371.312 154.636 371.669 154.051C371.799 153.889 371.896 153.759 372.026 153.596C372.221 153.336 372.448 153.076 372.643 152.816C372.546 152.946 372.448 153.076 372.318 153.206C372.513 152.979 372.708 152.751 372.903 152.491C372.968 152.426 373 152.361 373.065 152.296C373.065 152.296 373.033 152.329 373 152.361C373 152.361 373.033 152.329 373.065 152.296C373.13 152.199 373.227 152.101 373.292 152.004C373.26 152.069 373.195 152.101 373.162 152.166C373.162 152.166 373.162 152.166 373.195 152.134C373.455 151.809 373.714 151.484 373.974 151.159C373.747 151.451 373.487 151.744 373.26 152.036C373.357 151.906 373.487 151.776 373.585 151.646C374.007 151.126 374.396 150.639 374.818 150.119C374.754 150.184 374.721 150.249 374.656 150.314C374.591 150.379 374.559 150.444 374.494 150.509C374.526 150.476 374.559 150.411 374.624 150.379C374.559 150.476 374.461 150.574 374.396 150.671C374.559 150.476 374.754 150.249 374.916 150.054C375.013 149.956 375.078 149.859 375.176 149.729C375.111 149.826 375.046 149.891 374.981 149.989C378.001 146.251 380.956 142.417 383.911 138.614C387.969 133.479 391.996 128.344 396.022 123.209C398.88 119.569 401.867 115.962 404.79 112.354C408.199 108.097 411.641 103.872 415.051 99.6471C422.389 90.9373 429.76 82.2924 437.196 73.68C440.93 69.3576 444.73 65.0677 448.561 60.7777C450.185 58.9577 451.841 57.1703 453.497 55.3828C454.471 54.3428 455.478 53.2703 456.452 52.2303C457.751 50.8329 459.115 49.5004 460.511 48.1679C461.16 47.5504 461.777 46.8679 462.427 46.2504C461.972 48.4604 461.485 50.6379 460.771 52.7828C459.082 57.1378 457.036 61.3302 454.991 65.4902C452.588 70.4301 449.925 75.24 447.262 80.0499C445.087 83.9824 442.911 87.9473 440.703 91.8473C436.872 98.7372 433.007 105.595 429.176 112.484C421.577 126.102 414.012 139.719 406.511 153.401C399.562 166.109 392.775 178.881 386.054 191.751C382.742 198.121 379.429 204.523 376.15 210.958C372.773 217.523 369.526 224.218 366.636 231.043C365.921 232.765 365.239 234.488 364.622 236.275C364.07 237.77 363.648 239.363 363.226 240.923C363.096 241.703 362.999 242.483 362.901 243.263C362.901 244.075 363.031 244.92 363.194 245.733C363.356 246.675 363.486 247.487 364.622 247.552C365.304 247.617 366.019 247.65 366.733 247.715C367.707 247.78 368.779 247.39 369.656 247.065C370.337 246.772 370.987 246.415 371.636 246.058C372.61 245.505 373.487 244.92 374.364 244.27C377.481 241.963 380.469 239.395 383.294 236.73C386.281 233.935 389.073 230.945 391.834 227.923C394.788 224.738 397.711 221.553 400.633 218.335C401.997 216.84 403.393 215.378 404.692 213.85C404.692 213.85 404.757 213.785 404.79 213.753C405.179 213.363 405.537 212.94 405.829 212.453C405.959 212.29 406.089 212.128 406.218 211.998C406.218 212.031 406.153 212.063 406.121 212.095C406.186 211.998 406.283 211.901 406.348 211.803C406.413 211.738 406.478 211.641 406.543 211.576C406.543 211.576 406.608 211.511 406.608 211.478C406.673 211.381 406.77 211.283 406.835 211.218C406.77 211.283 406.706 211.381 406.641 211.446C406.835 211.218 407.03 210.991 407.225 210.731C407.582 210.373 407.907 209.951 408.199 209.528C408.329 209.366 408.459 209.236 408.556 209.073C408.881 208.748 409.173 208.358 409.466 207.968C409.466 207.936 409.531 207.903 409.563 207.838C409.693 207.676 409.823 207.546 409.953 207.383C410.212 207.091 410.44 206.798 410.667 206.473C410.764 206.343 410.894 206.181 411.024 206.051C411.252 205.758 411.479 205.498 411.706 205.206C412.193 204.686 412.615 204.133 413.037 203.581C413.167 203.418 413.297 203.256 413.46 203.093C413.589 202.963 413.687 202.833 413.752 202.736C414.109 202.378 414.434 201.956 414.726 201.501C414.791 201.403 414.856 201.338 414.921 201.241C415.083 201.046 415.246 200.851 415.408 200.656C415.798 200.266 416.155 199.811 416.479 199.323C416.707 199.031 416.934 198.771 417.161 198.478C417.194 198.413 417.259 198.348 417.291 198.316C417.551 198.056 417.811 197.763 418.038 197.471C418.233 197.243 418.428 196.983 418.623 196.756C419.272 196.041 419.856 195.228 420.473 194.481C420.961 193.993 421.415 193.441 421.772 192.888C421.675 193.018 421.577 193.148 421.448 193.278C421.545 193.148 421.642 193.018 421.772 192.888L421.87 192.758C422 192.596 422.129 192.433 422.259 192.303C422.259 192.271 422.324 192.238 422.357 192.206C422.357 192.173 422.422 192.141 422.454 192.108C422.552 191.978 422.681 191.848 422.779 191.686C423.039 191.393 423.266 191.068 423.526 190.776C423.493 190.808 423.461 190.873 423.428 190.906C425.052 188.891 426.611 186.811 428.169 184.763C431.449 180.538 434.728 176.281 437.976 172.024C441.515 167.441 445.054 162.826 448.626 158.211C458.692 145.146 468.791 132.082 478.89 119.049C480.091 117.489 481.26 115.897 482.494 114.369C482.754 114.077 483.014 113.752 483.273 113.427C483.403 113.264 483.533 113.102 483.695 112.907C483.923 112.647 484.15 112.387 484.345 112.127C484.67 111.769 484.994 111.379 485.254 110.957C485.287 110.892 485.351 110.827 485.384 110.794C485.709 110.404 486.033 109.982 486.391 109.592C486.813 109.137 487.202 108.682 487.462 108.26C488.436 107.09 489.378 105.92 490.352 104.717L493.242 101.175C493.242 101.175 493.275 101.142 493.307 101.11C493.794 100.655 494.249 100.102 494.606 99.5172C494.931 99.1272 495.223 98.7372 495.548 98.3472C495.677 98.1847 495.84 98.0222 495.97 97.8597C496.197 97.5997 496.424 97.3072 496.652 97.0147C496.781 96.8522 496.879 96.7222 497.009 96.5597C496.911 96.6897 496.814 96.7872 496.716 96.9172L496.879 96.7222C496.879 96.7222 496.781 96.8522 496.749 96.8847C496.749 96.8847 496.944 96.6572 497.041 96.5272C497.204 96.3322 497.333 96.1372 497.496 95.9747C497.431 96.0722 497.333 96.1697 497.268 96.2672C497.333 96.1697 497.398 96.1047 497.496 96.0072C497.496 96.0397 497.431 96.0722 497.398 96.1047C497.431 96.0722 497.463 96.0072 497.496 95.9747C497.528 95.9097 497.593 95.8772 497.626 95.8122C503.016 89.3448 508.406 82.8774 513.861 76.475C516.654 73.1925 519.511 69.9751 522.369 66.7251C523.44 65.5227 524.512 64.3202 525.616 63.1502C527.727 60.9077 529.772 58.6003 531.981 56.4553C532.11 56.3578 532.24 56.2603 532.37 56.1628C532.597 56.0653 532.825 55.9678 533.052 55.8703C533.052 56.2603 533.052 56.6503 533.052 57.0403C532.955 57.3653 532.857 57.7228 532.76 58.0478C531.851 60.2252 530.747 62.2402 529.578 64.2877C528.279 66.5301 527.077 68.8051 525.811 71.0801C525.973 70.7876 526.136 70.4951 526.331 70.2026C526.168 70.4951 525.973 70.8201 525.811 71.1126C520.518 80.2124 514.868 89.0848 509.315 97.9897C505.484 104.165 501.717 110.404 497.918 116.612C490.385 128.929 482.689 141.149 475.188 153.531C473.337 156.586 471.519 159.674 469.668 162.761C467.914 165.719 466.128 168.676 464.472 171.699C462.686 174.949 460.965 178.199 459.277 181.513C458.335 183.366 457.588 185.316 456.841 187.266C456.517 188.176 455.9 189.541 455.997 190.548C455.997 190.776 456.062 191.003 456.062 191.263C455.997 191.913 456.225 192.433 456.712 192.856C457.199 193.473 457.588 193.668 458.368 193.831C458.53 193.896 458.725 193.928 458.887 193.961C459.472 193.863 460.056 193.766 460.608 193.636C461.517 193.181 462.362 192.726 463.206 192.141C464.31 191.393 465.284 190.386 466.323 189.541C470.674 185.998 474.409 181.741 478.175 177.581C481.293 174.136 484.377 170.724 487.495 167.279C489.41 165.166 491.099 162.859 492.885 160.649C496.164 156.586 499.444 152.524 502.724 148.429C510.907 138.322 518.667 127.857 526.558 117.522C530.032 112.972 533.669 108.552 537.208 104.067C541.3 98.9322 545.391 93.7322 549.483 88.5973C558.64 77.8075 567.699 66.9201 576.954 56.2278C587.117 44.528 597.378 32.8931 607.737 21.4208C609.035 19.9908 610.367 18.5608 611.666 17.1634C613.809 14.8234 615.919 12.3859 618.192 10.176C618.485 9.94847 618.809 9.72097 619.134 9.52597C619.329 9.42847 619.491 9.33097 619.686 9.23347C619.751 9.39597 619.783 9.52597 619.848 9.68847C619.848 9.75347 619.848 9.85097 619.848 9.91597C619.783 10.2735 619.686 10.5985 619.589 10.956C618.679 13.0034 617.575 14.9209 616.471 16.8709C615.205 19.1133 614.068 21.4208 612.802 23.6308C606.081 35.0706 598.839 46.2829 591.761 57.5278C589.163 61.6552 586.695 65.8801 584.162 70.0401C581.272 74.8175 578.252 79.5624 575.46 84.4049C575.72 83.9499 575.979 83.5274 576.239 83.0724C560.815 109.365 545.748 135.884 530.812 162.469C527.435 168.481 524.09 174.526 520.843 180.603C519.219 183.626 517.693 186.713 516.134 189.768C515.29 191.458 514.576 193.181 513.764 194.871C513.05 196.431 512.4 198.056 511.848 199.681C511.491 200.753 511.166 201.793 510.874 202.898C510.517 204.328 510.517 205.758 510.614 207.188C510.679 208.033 510.971 209.041 512.043 209.008C513.082 209.008 514.056 208.976 515.128 208.781C516.199 208.586 517.044 208.196 518.018 207.741C520.031 206.766 521.849 205.433 523.635 204.036C527.759 200.818 531.721 197.308 535.552 193.733C543.021 186.713 549.937 179.043 557.114 171.699C562.114 166.564 566.985 161.266 571.92 156.066C582.701 144.659 593.482 133.219 604.23 121.747C613.744 111.607 623.128 101.37 632.61 91.1973C638.032 85.3799 643.488 79.5624 648.943 73.7775C653.521 68.9351 658.165 64.0927 663.036 59.5427C664.529 58.1778 665.99 56.7803 667.484 55.4478C666.9 56.6828 666.283 57.8853 665.666 59.0877C665.081 60.2577 664.302 63.2152 666.445 63.3777C667.159 63.3127 667.841 63.0852 668.426 62.6302C669.66 61.7852 670.569 60.4852 671.218 59.1852C672.485 56.6828 673.719 54.1478 674.855 51.5804C675.18 50.8329 675.44 50.0854 675.732 49.3379C675.862 48.6554 675.927 47.9729 675.992 47.2904C676.089 46.2829 675.31 45.5029 674.693 44.853C673.946 44.1055 672.55 45.048 671.933 45.3729C671.153 45.8279 670.374 46.2504 669.627 46.7379C668.621 47.3879 667.711 48.2654 666.802 49.0454C665.925 49.7929 665.081 50.5729 664.237 51.3529C662.938 52.5878 661.607 53.7578 660.34 54.9928C657.645 57.6253 654.983 60.2577 652.352 62.9552C647.514 67.9276 642.741 72.9325 638 78.0025C628.031 88.7273 618.16 99.4846 608.159 110.177C598.352 120.609 588.578 131.074 578.772 141.474C571.888 148.754 564.972 156.034 558.088 163.314C555.652 165.881 553.217 168.384 550.781 170.919C543.67 178.328 536.689 185.836 528.993 192.628C528.863 192.726 528.766 192.823 528.636 192.953C525.811 195.358 522.953 197.861 519.771 199.778C519.349 199.973 518.895 200.168 518.44 200.331C518.115 200.363 517.79 200.396 517.466 200.428C517.693 199.453 517.985 198.478 518.278 197.536C521.168 190.191 525.064 183.236 528.766 176.314C531.916 170.431 535.228 164.614 538.507 158.796C545.911 145.601 553.444 132.472 560.913 119.309C562.601 116.352 564.257 113.394 565.946 110.469C570.752 102.247 575.557 93.9922 580.331 85.7374C586.046 76.2475 591.761 66.7251 597.67 57.3328C601.729 50.8979 605.756 44.4305 609.782 37.9631C612.802 33.1206 615.789 28.2457 618.647 23.2733C619.654 21.5183 620.628 19.7308 621.537 17.9108C622.446 16.1559 623.453 14.4984 624.362 12.7759C625.304 11.0534 625.953 9.16848 626.44 7.251C626.505 6.86101 626.57 6.47102 626.602 6.08102C626.797 5.39853 626.797 4.68354 626.602 3.96855C626.473 2.86357 626.083 1.92108 625.726 0.881098C625.433 -0.0288885 624.265 -0.191386 623.518 0.198608C621.44 1.27109 619.394 2.24608 617.575 3.74106C615.692 5.30103 614.133 7.12101 612.477 8.90848C611.114 10.4035 609.75 11.8659 608.354 13.3609C605.886 16.0259 603.45 18.7558 600.982 21.4533C595.852 27.1407 590.819 32.8606 585.721 38.5805C576.109 49.4354 566.758 60.4852 557.406 71.5676C553.184 76.5725 548.866 81.4799 544.807 86.6148C538.8 94.1872 532.792 101.76 526.753 109.332C523.246 113.752 519.836 118.204 516.427 122.689C513.18 126.914 509.932 131.172 506.685 135.397C505.257 137.282 503.828 139.232 502.367 141.052C496.781 147.974 491.229 154.896 485.644 161.786C482.884 164.841 480.124 167.864 477.363 170.919C473.727 174.916 470.155 178.978 466.161 182.618C466.518 182.326 466.843 182.001 467.2 181.708C465.901 182.846 464.57 184.016 463.141 185.056C463.661 183.723 464.245 182.391 464.894 181.123L467.038 176.931C467.979 175.079 468.986 173.291 469.992 171.504C473.402 165.686 476.811 159.901 480.318 154.116C484.085 147.909 487.982 141.734 491.781 135.527C499.249 123.404 506.62 111.217 514.154 99.0947C517.174 94.2197 520.226 89.3448 523.246 84.4699C526.785 78.75 530.26 72.9975 533.442 67.0826C535 64.1577 536.786 61.3302 538.118 58.2753C538.735 56.8778 539.189 55.3828 539.579 53.9203C540.066 52.1003 539.806 50.1829 539.741 48.3629C539.676 46.9329 538.767 46.1854 537.371 46.7379C536.429 47.0954 535.487 47.4204 534.578 47.7779C533.247 48.2979 532.11 49.1754 531.039 50.0854C529.48 51.4179 528.052 52.9453 526.623 54.4403C524.967 56.2278 523.246 57.9503 521.622 59.7702C518.83 62.9552 516.005 66.1076 513.277 69.3251C507.172 76.4425 501.1 83.5599 495.19 90.8073C495.288 90.7098 495.353 90.6123 495.45 90.5148C495.353 90.6448 495.223 90.7748 495.125 90.9048C495.19 90.8073 495.255 90.7423 495.353 90.6448C495.093 90.9698 494.833 91.2948 494.541 91.6198C494.541 91.6198 494.573 91.5548 494.606 91.5548C494.508 91.6523 494.444 91.7498 494.346 91.8473C494.119 92.1398 493.859 92.4323 493.632 92.7248C493.664 92.6598 493.729 92.6273 493.762 92.5623C493.697 92.6273 493.664 92.6923 493.599 92.7572C493.599 92.7572 493.599 92.7572 493.599 92.7897C493.794 92.5623 493.989 92.3023 494.184 92.0748C493.956 92.3673 493.697 92.6598 493.469 92.9198C493.437 92.9522 493.404 93.0173 493.339 93.0497C492.982 93.4397 492.658 93.8622 492.365 94.2522C492.268 94.3822 492.171 94.5122 492.073 94.6097C491.781 94.9672 491.489 95.2922 491.229 95.6497C491.131 95.7472 491.066 95.8447 490.969 95.9422C490.514 96.3647 490.125 96.8847 489.8 97.4047C488.631 98.8347 487.462 100.265 486.293 101.695C485.481 102.702 484.507 103.71 483.695 104.847C483.436 105.14 483.176 105.465 482.949 105.822C482.624 106.212 482.299 106.602 481.974 107.025C481.52 107.48 481.098 107.967 480.741 108.487C480.741 108.487 480.741 108.52 480.708 108.552C480.351 108.942 480.026 109.365 479.734 109.787C479.539 110.015 479.344 110.242 479.149 110.502C479.279 110.339 479.409 110.209 479.539 110.047C479.604 109.982 479.636 109.917 479.701 109.852C479.799 109.755 479.864 109.625 479.961 109.527C479.864 109.625 479.766 109.755 479.701 109.852C479.636 109.95 479.572 110.014 479.507 110.112C477.818 112.224 476.194 114.369 474.538 116.482L464.829 128.962C461.225 133.609 457.621 138.257 454.049 142.937C443.95 156.001 433.884 169.066 423.818 182.163C422.552 183.788 421.318 185.446 420.051 187.071C419.727 187.428 419.402 187.818 419.11 188.241C419.24 188.078 419.402 187.883 419.532 187.721C419.402 187.851 419.304 188.013 419.175 188.143C419.175 188.176 419.11 188.208 419.077 188.241C418.98 188.371 418.882 188.501 418.752 188.631C418.817 188.566 418.882 188.501 418.915 188.403C418.85 188.468 418.785 188.566 418.72 188.631C418.85 188.468 418.98 188.338 419.077 188.176C418.882 188.436 418.655 188.696 418.46 188.923C418.33 189.053 418.233 189.216 418.103 189.346C418.168 189.281 418.233 189.183 418.298 189.118C418.103 189.346 417.908 189.606 417.713 189.833C417.356 190.223 417.031 190.613 416.739 191.036C416.642 191.166 416.512 191.296 416.414 191.426C416.414 191.393 416.479 191.361 416.512 191.328C416.479 191.361 416.447 191.426 416.414 191.458C416.09 191.816 415.733 192.206 415.44 192.628C415.278 192.791 415.148 192.953 415.018 193.148C414.758 193.441 414.499 193.766 414.271 194.091C414.174 194.221 414.077 194.351 413.979 194.481C413.752 194.741 413.525 195.033 413.297 195.293C412.778 195.846 412.323 196.463 411.868 197.016C411.771 197.113 411.706 197.211 411.609 197.308C411.479 197.471 411.349 197.601 411.252 197.731C410.862 198.121 410.537 198.543 410.212 198.998C410.18 199.063 410.115 199.128 410.083 199.193C409.92 199.421 409.725 199.616 409.563 199.843C409.725 199.648 409.855 199.486 410.018 199.291C409.855 199.486 409.725 199.681 409.563 199.843C409.206 200.233 408.849 200.656 408.556 201.078C408.329 201.371 408.069 201.663 407.842 201.956C407.777 202.021 407.712 202.118 407.647 202.183C407.387 202.443 407.16 202.736 406.9 203.028C406.706 203.256 406.511 203.483 406.316 203.743C405.666 204.458 405.114 205.238 404.53 205.986C404.043 206.473 403.588 207.026 403.199 207.611C403.458 207.286 403.751 206.928 404.01 206.603C403.913 206.701 403.848 206.831 403.751 206.928C403.556 207.156 403.361 207.383 403.199 207.611C403.199 207.611 403.166 207.676 403.134 207.708C403.134 207.708 403.166 207.643 403.199 207.611C403.166 207.676 403.101 207.708 403.069 207.773C403.069 207.773 402.971 207.838 402.939 207.903L403.134 207.676C403.134 207.676 403.166 207.611 403.199 207.578C403.101 207.708 402.971 207.838 402.874 207.968C402.809 208.033 402.744 208.131 402.679 208.196C402.679 208.228 402.614 208.261 402.582 208.293C402.582 208.326 402.517 208.358 402.484 208.391C402.452 208.456 402.387 208.521 402.354 208.553C402.387 208.521 402.419 208.456 402.452 208.423C402.387 208.488 402.322 208.586 402.257 208.651C401.413 209.626 400.503 210.568 399.627 211.51C397.386 213.948 395.146 216.385 392.905 218.823C388.327 223.828 383.748 228.833 378.683 233.35C376.604 235.138 374.461 236.893 372.123 238.323C371.799 238.485 371.474 238.615 371.149 238.713C370.662 238.713 370.175 238.713 369.688 238.713C369.623 238.063 369.688 237.445 369.85 236.795C369.785 237.185 369.72 237.575 369.688 237.965C370.143 236.21 370.662 234.488 371.279 232.765C374.007 225.68 377.514 218.92 380.891 212.128C383.781 206.311 386.8 200.526 389.82 194.773C396.542 181.903 403.264 169.034 410.245 156.294C418.103 141.929 426.059 127.597 434.047 113.297C437.521 107.057 440.995 100.85 444.47 94.6097C451.159 82.6499 457.978 70.7226 463.79 58.3078C465.057 55.6103 466.193 52.8153 467.167 50.0204C468.174 47.0629 468.726 44.008 469.375 40.953C469.538 40.2055 469.798 38.678 468.888 38.1906C468.174 37.8006 467.427 37.3131 466.615 37.1831C466.388 37.1506 466.161 37.1181 465.901 37.0531C465.349 37.1181 464.829 37.2481 464.31 37.4431C463.336 37.8006 462.329 38.678 461.615 39.3605C460.965 39.9455 460.413 40.563 459.829 41.1805C459.147 41.928 458.335 42.643 457.556 43.358C456.744 44.138 455.932 44.983 455.121 45.7954C454.439 46.5104 453.757 47.2579 453.075 47.9729C450.607 50.6379 448.139 53.2703 445.704 56.0003C440.249 62.1102 434.923 68.2526 429.598 74.4275C424.662 80.1799 419.792 85.9649 414.921 91.7173C410.342 97.0797 405.991 102.637 401.575 108.097C391.379 120.739 381.345 133.479 371.344 146.251C371.019 146.674 370.695 147.064 370.337 147.486C370.662 147.096 370.987 146.706 371.312 146.316C371.279 146.381 371.214 146.446 371.182 146.511C371.019 146.706 370.857 146.901 370.695 147.129C370.792 146.999 370.889 146.901 370.987 146.771C370.889 146.869 370.824 146.999 370.727 147.096C370.402 147.486 370.045 147.909 369.72 148.299C369.753 148.234 369.818 148.201 369.85 148.136C370.045 147.876 370.272 147.649 370.467 147.389C370.272 147.616 370.11 147.844 369.915 148.071C369.915 148.039 369.98 148.006 370.013 147.974C369.883 148.136 369.753 148.299 369.591 148.494C369.591 148.494 369.591 148.494 369.591 148.526C369.428 148.721 369.266 148.916 369.104 149.111C369.266 148.916 369.428 148.689 369.591 148.494C369.168 148.949 368.811 149.404 368.519 149.794C368.454 149.891 368.357 149.989 368.292 150.086C368.292 150.086 368.259 150.119 368.227 150.151C368.032 150.379 367.837 150.606 367.675 150.834C367.642 150.866 367.61 150.931 367.577 150.964C367.577 150.964 367.545 150.996 367.512 151.029C367.025 151.646 366.538 152.231 366.019 152.849C365.759 153.174 365.434 153.531 365.142 153.889C364.882 154.149 364.622 154.441 364.428 154.766C364.233 154.994 364.038 155.254 363.876 155.514C363.811 155.611 363.713 155.709 363.648 155.806C363.064 156.521 362.479 157.236 361.895 157.951C362.057 157.756 362.22 157.529 362.414 157.334C362.22 157.561 362.057 157.756 361.862 157.984C361.732 158.179 361.57 158.341 361.44 158.536C361.57 158.374 361.732 158.179 361.862 158.016C361.18 158.861 360.466 159.706 359.784 160.551C359.784 160.551 359.784 160.551 359.784 160.584C359.622 160.779 359.492 160.941 359.33 161.136C359.427 161.006 359.557 160.876 359.654 160.714C359.2 161.266 358.745 161.851 358.258 162.404C357.966 162.729 357.674 163.086 357.414 163.411C357.024 163.866 356.634 164.354 356.277 164.841C356.147 164.971 356.05 165.134 355.92 165.264C355.563 165.621 355.206 166.044 354.913 166.466C354.654 166.759 354.426 167.084 354.167 167.376C354.069 167.474 354.004 167.571 353.907 167.701C353.615 167.994 353.322 168.351 353.063 168.676C352.705 169.099 352.381 169.521 352.056 169.944C351.829 170.236 351.601 170.496 351.374 170.789C351.374 170.789 351.309 170.854 351.309 170.886C351.212 170.984 351.114 171.114 351.017 171.211C351.082 171.146 351.114 171.081 351.179 171.016C351.082 171.114 351.017 171.211 350.919 171.341C350.692 171.634 350.432 171.926 350.205 172.219C350.238 172.186 350.27 172.154 350.303 172.089C347.478 175.501 344.523 178.816 341.633 182.163C337.898 186.518 334.164 190.906 330.43 195.261C329.586 196.236 328.612 197.178 327.702 198.121L320.007 206.083C317.799 208.358 315.59 210.666 313.382 212.94C310.265 216.158 306.953 219.148 303.608 222.105C301.952 223.535 300.231 224.9 298.51 226.265C296.562 227.793 294.646 229.32 292.568 230.62C291.464 231.173 290.328 231.693 289.126 232.05C289.094 232.05 289.061 232.05 288.996 232.05C288.931 231.888 288.899 231.758 288.834 231.595C288.834 231.433 288.834 231.27 288.834 231.14C289.094 230.035 289.418 228.93 289.776 227.858C291.659 223.08 294.127 218.628 296.53 214.143C303.349 202.443 310.363 190.841 317.506 179.303C325.592 166.174 333.71 153.109 341.957 140.077C345.367 134.682 348.614 129.189 351.959 123.762C354.394 119.829 356.764 115.864 359.07 111.899C362.544 105.92 366.051 99.9072 369.526 93.9272C373.162 87.6873 376.832 81.4474 380.046 74.98C381.735 71.5676 383.813 68.2526 385.047 64.6127C385.632 62.9227 385.956 61.2327 386.054 59.4452C385.956 58.8602 385.859 58.2428 385.729 57.6578C385.599 57.3653 385.502 57.0728 385.372 56.8128C385.079 56.2603 384.787 55.7078 384.495 55.1228C384.073 54.2453 383.131 54.0178 382.287 54.4403C380.436 55.3503 378.553 56.1953 376.799 57.2678C375.825 57.8528 374.948 58.7303 374.072 59.4777C373.292 60.1927 372.513 60.9402 371.766 61.6877C370.143 63.2477 368.551 64.8402 366.928 66.4326C364.428 68.9351 361.927 71.4376 359.459 73.94C353.842 79.6599 348.322 85.4449 342.769 91.2623C337.574 96.6897 332.508 102.247 327.378 107.74C322.345 113.102 317.539 118.659 312.636 124.152C310.98 126.004 309.259 127.824 307.635 129.742C305.557 132.244 303.446 134.682 301.368 137.184C296.14 143.392 290.847 149.534 285.717 155.839C286.041 155.449 286.366 155.026 286.691 154.636C279.58 163.216 272.501 171.829 265.454 180.441C265.487 180.408 265.519 180.376 265.552 180.311C262.37 184.081 259.252 187.851 256.103 191.653C253.927 194.253 251.752 196.853 249.576 199.486C248.732 200.493 247.887 201.566 247.011 202.541C243.179 206.733 239.347 210.926 235.516 215.118C230.353 220.74 225.19 226.363 219.475 231.433C216.845 233.643 214.15 235.853 211.195 237.64C209.961 238.225 208.727 238.745 207.428 239.135C207.038 239.168 206.714 239.2 206.356 239.135C206.356 239.135 206.324 239.135 206.291 239.103C206.162 238.843 206.032 238.55 205.967 238.258C205.967 238.128 206.032 238.03 206.064 237.9C206.064 237.965 206.032 237.998 205.999 238.063C206.259 237.413 206.486 236.73 206.714 236.08C208.759 230.913 211.487 226.103 214.182 221.26C228.989 196.268 244.997 171.991 260.616 147.519C265.097 140.532 269.513 133.479 273.962 126.459C277.599 120.707 281.366 115.052 285.067 109.332C288.737 103.71 292.373 98.0872 296.01 92.4323C298.64 88.3048 301.271 84.2099 303.901 80.0824C304.907 78.5225 305.882 76.9625 306.856 75.37C308.187 73.1925 309.518 71.0151 310.817 68.7726C312.246 66.3351 313.545 63.8327 314.876 61.3302C315.753 59.8677 316.63 58.4378 317.441 56.9428C318.383 55.2203 318.838 53.3678 319 51.4179C318.968 51.1904 318.935 50.9954 318.903 50.7679C318.967 50.2154 318.805 49.7604 318.448 49.3704C317.896 48.6229 317.571 48.3629 316.662 48.1354C314.584 47.6154 312.538 49.6629 311.304 51.0279C308.642 53.9853 305.914 56.8778 303.251 59.8352C298.218 65.4577 293.445 71.2751 288.607 77.06C279.774 87.6873 271.299 98.5747 262.824 109.495C252.628 122.559 242.465 135.689 232.334 148.819C228.632 153.661 224.833 158.439 221.033 163.216C216.845 168.514 212.721 173.844 208.467 179.108C202.785 186.193 197.102 193.278 191.387 200.363C183.139 210.178 174.729 219.928 165.085 228.41C163.689 229.58 162.293 230.685 160.896 231.823C159.403 233.025 157.876 234.195 156.253 235.203C155.668 235.463 155.084 235.723 154.467 235.885C153.915 235.918 153.363 235.95 152.811 235.95C152.811 235.658 152.746 235.333 152.746 235.04C152.746 235.04 152.746 234.975 152.746 234.943C154.759 230.133 157.422 225.55 159.955 221C166.904 209.236 174.047 197.568 181.386 186.031C189.439 173.421 197.557 160.811 205.512 148.136C212.883 136.372 220.287 124.639 227.82 112.939C231.067 107.902 234.282 102.897 237.464 97.8272C239.607 94.4147 241.75 90.9698 243.893 87.5248C245.355 85.2174 246.718 82.8774 248.082 80.5049C249.381 78.2625 250.583 75.9875 251.622 73.615C252.498 71.6001 252.985 69.4551 253.57 67.3751C253.797 66.6601 253.797 65.9776 253.57 65.2627C253.18 64.3852 252.206 64.1577 251.362 64.5802C249.446 65.5551 247.693 66.4976 246.134 67.9926C245.062 69.0651 244.088 70.1701 243.082 71.3076L238.633 76.3125C236.425 78.7825 234.249 81.3174 232.106 83.8524C227.106 89.7348 222.138 95.6172 217.202 101.532C207.98 112.549 198.791 123.567 189.666 134.649C179.697 146.739 169.729 158.861 159.76 170.919C158.526 172.414 157.195 173.876 155.896 175.339C152.486 179.206 149.044 183.106 145.635 186.973C143.297 189.606 140.959 192.238 138.621 194.903C136.867 196.886 134.952 198.771 133.101 200.721C124.106 210.146 115.274 219.765 105.435 228.345C105.565 228.248 105.695 228.15 105.825 228.02C102.448 230.945 99.0381 233.903 95.2064 236.243C94.3297 236.698 93.453 237.023 92.4788 237.348C91.9268 237.51 91.3748 237.673 90.8228 237.803C90.8228 237.705 90.7578 237.64 90.7254 237.543C91.2124 236.503 91.732 235.495 92.219 234.455C92.836 233.123 93.5504 231.855 94.2648 230.588C95.8234 227.988 97.3171 225.388 98.9731 222.853C100.889 219.895 102.772 216.905 104.721 213.98C109.267 207.123 113.91 200.363 118.521 193.571C126.964 181.253 135.406 168.969 143.849 156.651C151.35 145.699 158.818 134.714 166.222 123.697C170.54 117.262 174.924 110.892 179.145 104.392C183.626 97.4697 188.14 90.5148 192.621 83.5924C196.42 77.7425 199.927 71.7301 203.369 65.6526C204.798 63.2802 206.324 60.9727 207.298 58.3728C207.59 57.6578 207.85 56.9103 208.012 56.1628C208.11 55.4803 208.207 54.7653 208.305 54.0503C208.207 53.4978 208.142 52.9453 208.012 52.3928C207.818 51.9053 207.59 51.4179 207.363 50.9304C206.714 49.4679 205.122 50.2154 204.181 50.8004C202.265 52.0028 200.479 53.1728 198.823 54.7003C197.589 55.8378 196.42 57.0403 195.251 58.2428L190.413 63.2802C187.945 65.8476 185.607 68.5126 183.172 71.1451C178.528 76.1825 174.047 81.3824 169.534 86.5173C160.117 97.1772 150.733 107.902 141.576 118.789C130.893 131.464 120.242 144.204 109.656 156.976C100.369 168.156 91.1475 179.401 81.8931 190.613C78.6784 194.513 75.3339 198.348 72.0543 202.216L59.4878 217.003C58.3188 218.4 56.955 219.668 55.6886 220.968C52.7662 223.99 49.8762 227.045 46.9538 230.1C44.6808 232.473 42.4078 234.845 40.1348 237.25C39.0632 238.355 37.9267 239.428 36.8227 240.5C33.6729 243.555 30.4258 246.545 27.1137 249.437C24.2562 251.875 21.3662 254.215 18.4113 256.49C15.2291 258.927 11.8521 261.007 8.41012 263.022C7.95552 263.217 7.53339 263.412 7.07879 263.542C7.04631 263.542 6.98137 263.542 6.9489 263.542C6.85149 263.477 6.75407 263.412 6.65666 263.347C6.62419 263.282 6.55924 263.217 6.52677 263.152C6.68913 262.437 6.88396 261.755 7.11126 261.072C8.60495 257.465 10.4883 254.117 12.4041 250.737C20.2297 238.03 28.4775 225.648 36.6603 213.168C44.8431 200.753 52.8636 188.208 60.8516 175.664C67.4108 165.329 73.8402 154.929 80.5943 144.691C84.3609 139.004 88.1276 133.317 91.8943 127.629C94.4596 123.762 96.9924 119.927 99.5251 116.059C100.467 114.629 101.408 113.199 102.318 111.802C103.649 109.755 104.948 107.707 106.182 105.627C107.286 103.742 108.26 101.825 109.234 99.8746C109.624 99.0947 110.046 97.7947 109.656 96.9172C109.299 96.1047 108.487 96.0072 107.74 96.2997C107.156 96.4947 106.604 96.7547 106.052 97.1122C105.532 97.5672 104.98 98.0222 104.493 98.5097C104.006 99.0947 103.519 99.6797 103.065 100.297C102.74 100.687 102.448 101.11 102.155 101.5C101.214 102.702 100.304 103.905 99.4277 105.14C97.8366 107.415 96.3105 109.69 94.7843 111.997C91.2774 117.327 87.8679 122.689 84.3934 128.019C83.9063 128.702 83.5816 129.449 83.3543 130.229C83.2244 130.847 83.0621 131.757 83.5167 132.342C80.4644 136.957 77.412 141.539 74.3597 146.154C72.866 148.396 71.4698 150.704 70.0085 152.979C67.3459 157.204 64.6832 161.396 61.9881 165.621C58.124 171.699 54.2274 177.744 50.3633 183.788C42.4727 196.138 34.3873 208.391 26.3019 220.61C22.5352 226.33 18.7685 232.018 15.0992 237.738C13.0211 240.955 11.0078 244.173 8.99461 247.422C8.0854 248.885 7.24114 250.347 6.42936 251.842C4.9032 254.572 3.37704 257.237 2.14312 260.13C1.20145 262.307 0.389658 264.55 0.0974145 266.89C0.064943 267.182 0.0324715 267.475 0 267.767C0.064943 268.352 0.129886 268.905 0.2273 269.457H0.487072V269.815ZM6.7216 263.412C6.7216 263.152 6.75407 262.925 6.81901 262.665L6.7216 263.412ZM6.7216 263.672C6.7216 263.672 6.7216 263.802 6.75407 263.867C6.75407 263.802 6.75407 263.737 6.75407 263.672H6.7216ZM6.7216 264.062C6.7216 264.16 6.7216 264.257 6.75407 264.355C6.75407 264.257 6.7216 264.16 6.68913 264.062H6.7216ZM106.279 228.118C106.279 228.118 106.474 227.955 106.571 227.858C106.474 227.955 106.377 228.02 106.279 228.118ZM165.118 228.8C165.118 228.8 165.312 228.638 165.442 228.54C165.345 228.638 165.247 228.703 165.118 228.8ZM205.674 239.46C205.772 239.233 205.837 239.005 205.934 238.745C205.837 238.973 205.772 239.2 205.674 239.46ZM288.314 232.245C288.314 232.245 288.509 232.31 288.639 232.343C288.542 232.343 288.444 232.278 288.314 232.245ZM288.737 231.14C288.737 231.14 288.802 231.465 288.802 231.628C288.769 231.465 288.737 231.303 288.737 231.14ZM289.386 232.375C289.386 232.375 289.646 232.31 289.743 232.31C289.613 232.343 289.483 232.375 289.386 232.375ZM290.1 83.2349C290.1 83.2349 290.263 83.0074 290.36 82.9099C290.49 82.7799 290.587 82.6174 290.717 82.4874C290.522 82.7474 290.295 82.9749 290.1 83.2349ZM312.116 55.9353C312.181 56.1303 312.213 56.3253 312.213 56.5203C312.181 56.3253 312.148 56.1303 312.116 55.9353ZM314.324 62.6952C314.454 62.4677 314.584 62.2402 314.746 61.9802C314.616 62.2077 314.486 62.4352 314.324 62.6952ZM349.88 172.999C350.043 172.771 350.238 172.544 350.4 172.349C350.205 172.576 350.043 172.804 349.848 173.031L349.88 172.999ZM350.497 172.251C350.725 171.959 350.984 171.634 351.244 171.341C350.984 171.634 350.757 171.959 350.497 172.251ZM353.355 176.411C353.582 176.151 353.809 175.859 354.037 175.566C353.939 175.664 353.874 175.761 353.777 175.859C353.777 175.826 353.842 175.794 353.874 175.761C353.68 175.989 353.485 176.216 353.322 176.444L353.355 176.411ZM354.394 175.176C354.394 175.176 354.426 175.111 354.459 175.079C354.459 175.079 354.426 175.144 354.394 175.176ZM354.491 175.046C354.491 175.046 354.589 174.916 354.621 174.884C354.621 174.884 354.621 174.884 354.621 174.851C354.556 174.916 354.524 174.981 354.459 175.046H354.491ZM355.141 174.234C355.141 174.234 355.141 174.234 355.141 174.266V174.234ZM355.141 174.234C355.141 174.234 355.173 174.201 355.206 174.169C355.206 174.169 355.206 174.169 355.173 174.201L355.141 174.234ZM370.597 147.649C370.597 147.649 370.597 147.616 370.63 147.584C370.63 147.584 370.63 147.616 370.597 147.649ZM379.365 64.8727C379.429 65.1002 379.462 65.3277 379.462 65.5552C379.429 65.3277 379.397 65.1002 379.365 64.8727ZM401.478 210.016C401.737 209.691 401.997 209.366 402.257 209.041C402.257 209.041 402.257 209.041 402.257 209.073C401.997 209.398 401.737 209.691 401.51 209.983L401.478 210.016ZM405.244 213.07C405.244 213.07 405.309 212.973 405.374 212.94C405.374 212.94 405.374 212.973 405.342 213.005C405.342 213.005 405.309 213.07 405.277 213.103L405.244 213.07ZM412.258 196.821C412.258 196.821 412.453 196.561 412.55 196.463C412.453 196.593 412.356 196.723 412.258 196.821ZM415.018 201.111C415.148 200.948 415.278 200.786 415.408 200.623C415.278 200.786 415.116 200.981 414.986 201.143L415.018 201.111ZM419.629 187.818C419.629 187.818 419.662 187.753 419.694 187.753C419.694 187.753 419.694 187.721 419.727 187.688C419.727 187.688 419.694 187.721 419.662 187.753C419.662 187.753 419.662 187.786 419.629 187.818ZM419.727 187.688C419.727 187.688 419.921 187.461 420.019 187.331C419.986 187.396 419.921 187.428 419.889 187.493C419.824 187.558 419.792 187.623 419.727 187.688ZM420.311 186.973C420.311 186.973 420.408 186.843 420.473 186.778C420.408 186.843 420.376 186.908 420.311 186.973ZM461.063 51.9378C461.063 51.9378 461.16 51.6779 461.193 51.5804C461.16 51.7104 461.095 51.8403 461.063 51.9378ZM462.459 185.218C462.459 185.218 462.556 185.218 462.589 185.251C462.589 185.251 462.492 185.251 462.459 185.218ZM462.459 187.233C462.459 187.233 462.556 187.006 462.589 186.876C462.556 187.006 462.492 187.103 462.459 187.233ZM463.173 185.381C463.368 185.348 463.531 185.316 463.725 185.283C463.531 185.381 463.336 185.413 463.173 185.413V185.381ZM469.635 172.414C469.635 172.414 469.798 172.154 469.863 172.024C469.798 172.154 469.7 172.284 469.635 172.414ZM482.072 114.857C482.072 114.857 482.202 114.694 482.267 114.629C482.332 114.564 482.364 114.499 482.429 114.434C482.299 114.564 482.202 114.727 482.072 114.857ZM495.06 91.3273C495.06 91.3273 495.158 91.2298 495.19 91.1648C495.158 91.2298 495.093 91.2623 495.06 91.3273ZM497.658 95.8122C497.658 95.8122 497.691 95.7797 497.723 95.7472C497.788 95.6497 497.853 95.5847 497.918 95.4872C497.885 95.5522 497.821 95.5847 497.788 95.6497C497.853 95.5522 497.95 95.4547 498.015 95.3897C498.113 95.2922 498.21 95.1622 498.275 95.0647C498.178 95.1622 498.113 95.2597 498.015 95.3572C498.048 95.2922 498.113 95.2597 498.145 95.1947C498.145 95.1947 498.113 95.2597 498.08 95.2597C498.048 95.2922 498.015 95.3572 497.983 95.3897C497.885 95.5197 497.756 95.6497 497.658 95.8122ZM566.335 110.015C566.335 110.015 566.498 109.755 566.563 109.625C566.498 109.755 566.4 109.885 566.335 110.015ZM617.64 10.7935C617.64 10.7935 617.933 10.5335 618.062 10.436C617.933 10.566 617.77 10.696 617.64 10.7935ZM619.394 11.9634C619.459 11.7684 619.524 11.5734 619.621 11.3784C619.556 11.5734 619.491 11.7684 619.394 11.9634ZM619.848 11.0209C619.881 10.696 619.946 10.371 619.978 10.046C619.978 10.371 619.913 10.696 619.848 11.0209ZM619.913 9.23347C619.913 9.33097 619.913 9.42847 619.946 9.52597C619.946 9.42847 619.913 9.33097 619.881 9.26597L619.913 9.23347ZM525.876 71.0476C525.876 71.0476 525.876 71.0476 525.876 71.0801V71.0476ZM497.95 95.4547C497.95 95.4547 497.95 95.4222 497.983 95.3897C497.983 95.4222 497.918 95.4547 497.885 95.4872C497.885 95.4872 497.918 95.4222 497.95 95.3897V95.4547ZM497.333 96.2022C497.333 96.2022 497.171 96.3647 497.106 96.4622C497.041 96.5272 497.009 96.5922 496.944 96.6572C497.074 96.4947 497.204 96.3647 497.301 96.2022H497.333ZM495.19 91.1648C495.19 91.1648 495.255 91.0673 495.32 91.0348C495.288 91.0673 495.255 91.1323 495.223 91.1648C495.288 91.0998 495.353 91.0023 495.418 90.9373C495.223 91.1973 494.996 91.4573 494.801 91.7173C494.898 91.6198 494.963 91.5223 495.06 91.4248C494.963 91.5548 494.866 91.6523 494.768 91.7823C494.768 91.7823 494.703 91.8473 494.703 91.8798C494.866 91.6523 495.06 91.4248 495.223 91.2298L495.19 91.1648ZM494.606 91.8798C494.606 91.8798 494.703 91.7823 494.736 91.7173C494.736 91.7173 494.736 91.7173 494.736 91.6848C494.671 91.7498 494.638 91.8148 494.573 91.8798H494.606ZM494.541 91.9773C494.541 91.9773 494.671 91.8148 494.736 91.7498C494.703 91.7823 494.671 91.8473 494.638 91.8798C494.638 91.8798 494.606 91.9448 494.573 91.9448C494.573 91.9448 494.606 91.9123 494.638 91.8798C494.411 92.1398 494.184 92.4323 493.956 92.6923C494.151 92.4648 494.346 92.2048 494.541 91.9773ZM479.604 110.274C479.604 110.274 479.734 110.112 479.831 110.015C479.831 110.015 479.734 110.144 479.669 110.209C479.539 110.372 479.409 110.534 479.279 110.664C479.214 110.729 479.149 110.794 479.117 110.892C479.279 110.697 479.442 110.502 479.604 110.307V110.274ZM419.175 188.436C419.11 188.501 419.077 188.566 419.012 188.631C419.077 188.566 419.11 188.501 419.175 188.468V188.436ZM416.837 191.296C416.837 191.296 416.674 191.491 416.577 191.621C416.674 191.523 416.739 191.393 416.837 191.296ZM406.673 211.413C406.673 211.413 406.673 211.446 406.641 211.478C406.543 211.576 406.478 211.706 406.381 211.803C406.316 211.868 406.251 211.965 406.186 212.031C406.348 211.836 406.511 211.608 406.673 211.413ZM406.186 212.031C406.186 212.031 405.991 212.29 405.894 212.388C405.991 212.258 406.089 212.128 406.186 212.031ZM404.79 213.72C404.79 213.72 404.66 213.883 404.595 213.948C404.66 213.883 404.725 213.785 404.79 213.72ZM403.101 208.098L403.166 208.033C403.166 208.033 403.134 208.066 403.101 208.098ZM374.364 150.801C374.364 150.801 374.494 150.639 374.559 150.541C374.461 150.671 374.331 150.801 374.234 150.964C374.266 150.899 374.331 150.866 374.364 150.801ZM374.591 150.509C374.591 150.509 374.494 150.639 374.429 150.704C374.429 150.704 374.364 150.769 374.364 150.801C374.331 150.834 374.299 150.899 374.266 150.931C374.137 151.061 374.039 151.224 373.909 151.354C374.007 151.224 374.137 151.094 374.234 150.964C374.039 151.191 373.844 151.451 373.65 151.679C373.974 151.289 374.299 150.899 374.591 150.509ZM373.325 152.069C373.325 152.069 373.292 152.134 373.26 152.134C373.26 152.134 373.292 152.101 373.325 152.069ZM373.26 152.134C373.26 152.134 373.26 152.134 373.227 152.166C373.227 152.166 373.26 152.166 373.292 152.134H373.26ZM373.227 152.166C373.195 152.199 373.162 152.231 373.13 152.296C373.162 152.264 373.195 152.231 373.227 152.166ZM373.227 152.166C373.227 152.166 373.065 152.361 372.968 152.459C372.87 152.556 372.805 152.686 372.708 152.784C372.87 152.589 373.065 152.361 373.227 152.166ZM370.013 148.429C370.013 148.429 369.98 148.461 369.948 148.494C369.948 148.526 369.883 148.559 369.85 148.624C369.915 148.559 369.948 148.494 370.013 148.429ZM369.656 148.851C369.656 148.851 369.785 148.721 369.818 148.656C369.753 148.721 369.688 148.786 369.623 148.884L369.656 148.851ZM361.862 158.374C361.862 158.374 361.862 158.374 361.862 158.341C361.862 158.341 361.862 158.374 361.83 158.406L361.862 158.374ZM359.752 160.941C359.752 160.941 359.752 160.941 359.752 160.909C359.914 160.714 360.076 160.486 360.239 160.291C360.012 160.551 359.817 160.811 359.589 161.071C359.622 161.039 359.654 160.974 359.719 160.941H359.752ZM355.271 174.071C355.271 174.071 355.271 174.039 355.303 174.006L355.271 174.071ZM354.102 175.501C354.069 175.566 354.004 175.599 353.972 175.664C354.004 175.599 354.069 175.534 354.102 175.501ZM354.037 175.599C353.874 175.794 353.712 175.989 353.517 176.216C353.68 176.021 353.842 175.826 354.037 175.599ZM353.517 176.216C353.517 176.216 353.485 176.249 353.452 176.281C353.452 176.281 353.485 176.216 353.517 176.216ZM353.452 176.281C353.322 176.444 353.16 176.606 353.03 176.801C353.16 176.639 353.29 176.476 353.452 176.281ZM268.28 185.121L267.76 185.738C267.922 185.543 268.085 185.348 268.28 185.121Z" fill="#D1EF53"/>
</svg>
